<svg data-v-423bf9ae="" xmlns="http://www.w3.org/2000/svg" viewBox="0 0 798.5149699254822 60" class="font"><!----><!----><!----><g data-v-423bf9ae="" id="8bc471dc-b9ea-4654-9123-fca9d3011461" fill="white" transform="matrix(13.577733526672345,0,0,13.577733526672345,0.4073302733849573,-72.62729680023787)"><path d="M3.08 5.56L3.08 5.56Q3.18 5.83 2.86 5.85L2.86 5.85Q2.45 5.88 2.04 5.86Q1.62 5.84 1.21 5.87L1.21 5.87Q1.05 5.89 0.83 5.85L0.83 5.85Q0.61 5.82 0.50 5.94L0.50 5.94Q0.41 6.03 0.42 6.17L0.42 6.17Q0.43 6.17 0.43 6.21L0.43 6.21Q0.43 6.24 0.43 6.33Q0.42 6.42 0.42 6.57L0.42 6.57Q0.40 6.83 0.50 6.94L0.50 6.94Q0.60 7.06 0.78 7.06L0.78 7.06Q0.89 7.07 1.04 7.07Q1.20 7.08 1.40 7.09L1.40 7.09Q1.43 7.10 1.51 7.09Q1.59 7.08 1.73 7.08L1.73 7.08Q1.80 7.07 1.93 7.06Q2.06 7.05 2.13 7.10L2.13 7.10Q2.20 7.15 2.20 7.27L2.20 7.27Q2.21 7.36 2.17 7.40L2.17 7.40Q2.11 7.47 1.91 7.47L1.91 7.47Q1.82 7.47 1.73 7.46Q1.63 7.46 1.54 7.45L1.54 7.45Q1.33 7.44 1.12 7.45L1.12 7.45Q1.03 7.46 0.93 7.47Q0.83 7.47 0.75 7.47L0.75 7.47Q0.53 7.47 0.46 7.55L0.46 7.55Q0.41 7.62 0.41 7.85L0.41 7.85Q0.41 8.16 0.42 8.46Q0.43 8.76 0.44 9.05L0.44 9.05Q0.45 9.11 0.45 9.18Q0.44 9.26 0.44 9.37L0.44 9.37Q0.42 9.57 0.35 9.64L0.35 9.64Q0.29 9.70 0.22 9.70Q0.16 9.71 0.11 9.68Q0.05 9.65 0.02 9.58Q-0.01 9.52-0.02 9.45L-0.02 9.45Q-0.03 9.35-0.03 9.23Q-0.03 9.11-0.01 8.96L-0.01 8.96Q-0.01 8.85-0.00 8.74Q0 8.62 0 8.50L0 8.50Q0.01 8.37 0.01 8.26Q0.01 8.16 0.03 8.08L0.03 8.08Q0.04 7.90 0.02 7.72Q0 7.53 0 7.35L0 7.35L0 6.59Q0 6.38-0.01 6.17Q-0.02 5.95-0.02 5.74L-0.02 5.74L-0.02 5.71Q0.02 5.54 0.18 5.46L0.18 5.46Q0.28 5.41 0.49 5.41L0.49 5.41Q0.59 5.41 0.70 5.42Q0.81 5.42 0.93 5.42L0.93 5.42Q1.38 5.42 1.83 5.41Q2.27 5.40 2.72 5.41L2.72 5.41Q2.79 5.42 2.85 5.42Q2.91 5.43 2.97 5.44L2.97 5.44Q3.04 5.48 3.08 5.56ZM8.51 9.47L8.51 9.47Q8.51 9.65 8.37 9.69L8.37 9.69Q8.24 9.75 8.15 9.61L8.15 9.61Q8.10 9.54 8.07 9.49Q8.04 9.43 8.02 9.39L8.02 9.39Q7.92 9.18 7.85 9.03Q7.77 8.87 7.70 8.78L7.70 8.78Q7.53 8.55 7.33 8.49L7.33 8.49Q7.16 8.44 6.79 8.48L6.79 8.48Q6.57 8.50 6.37 8.51Q6.18 8.52 6.00 8.50L6.00 8.50Q5.61 8.48 5.41 8.76L5.41 8.76L5.40 8.78L5.39 8.79Q5.33 8.93 5.28 9.06Q5.24 9.19 5.17 9.32L5.17 9.32L5.03 9.54Q4.94 9.69 4.83 9.70L4.83 9.70Q4.79 9.72 4.70 9.65L4.70 9.65Q4.66 9.60 4.65 9.55Q4.63 9.49 4.65 9.43Q4.66 9.37 4.68 9.30Q4.70 9.24 4.72 9.19L4.72 9.19L4.89 8.85Q5.13 8.35 5.34 7.85Q5.54 7.34 5.78 6.83L5.78 6.83Q5.82 6.74 5.85 6.66Q5.88 6.58 5.91 6.51L5.91 6.51Q5.99 6.32 6.06 6.14Q6.14 5.95 6.23 5.76L6.23 5.76L6.34 5.61Q6.41 5.48 6.48 5.48L6.48 5.48Q6.55 5.46 6.66 5.59L6.66 5.59Q6.77 5.73 6.88 5.91Q6.99 6.10 7.06 6.26L7.06 6.26Q7.30 6.77 7.51 7.28Q7.72 7.79 7.96 8.28L7.96 8.28Q8.03 8.43 8.10 8.58Q8.18 8.74 8.26 8.88L8.26 8.88Q8.30 8.98 8.34 9.08Q8.39 9.17 8.43 9.27L8.43 9.27Q8.46 9.34 8.48 9.39Q8.50 9.44 8.51 9.47ZM7.16 7.56L7.16 7.56Q7.09 7.40 7.02 7.22Q6.96 7.05 6.87 6.88L6.87 6.88Q6.71 6.57 6.51 6.58L6.51 6.58Q6.43 6.58 6.37 6.62Q6.32 6.67 6.28 6.72Q6.23 6.78 6.20 6.85Q6.17 6.92 6.15 6.98L6.15 6.98Q6.07 7.18 6.00 7.40Q5.93 7.62 5.87 7.83L5.87 7.83Q5.82 7.98 5.89 8.05L5.89 8.05Q5.93 8.12 6.10 8.13L6.10 8.13Q6.25 8.14 6.36 8.15Q6.48 8.15 6.56 8.14L6.56 8.14Q6.71 8.14 6.95 8.10L6.95 8.10Q7.21 8.06 7.25 7.88L7.25 7.88Q7.27 7.77 7.23 7.69L7.23 7.69Q7.21 7.66 7.19 7.63Q7.16 7.59 7.16 7.56ZM13.78 5.56L13.78 5.56Q13.85 5.54 14.01 5.58L14.01 5.58Q14.16 5.62 14.20 5.68L14.20 5.68Q14.20 5.69 14.21 5.69L14.21 5.69Q14.23 5.89 14.23 6.28L14.23 6.28L14.23 6.79Q14.23 7 14.24 7.19Q14.25 7.38 14.23 7.58L14.23 7.58Q14.22 7.78 14.21 7.97Q14.19 8.16 14.21 8.35L14.21 8.35Q14.21 8.52 14.23 8.68Q14.24 8.84 14.23 9.00L14.23 9.00L14.21 9.32Q14.19 9.55 14.16 9.60L14.16 9.60Q14.08 9.71 13.99 9.71L13.99 9.71Q13.76 9.69 13.75 9.39L13.75 9.39Q13.73 8.95 13.76 8.51Q13.78 8.07 13.75 7.62L13.75 7.62L13.73 7.32Q13.71 7.10 13.54 7.08L13.54 7.08Q13.47 7.08 13.43 7.10Q13.38 7.13 13.34 7.18Q13.31 7.23 13.29 7.28Q13.27 7.34 13.25 7.39L13.25 7.39Q13.19 7.53 13.15 7.64Q13.10 7.75 13.07 7.83L13.07 7.83Q13.01 7.97 12.92 8.12Q12.83 8.26 12.76 8.40L12.76 8.40Q12.68 8.55 12.61 8.69Q12.54 8.82 12.47 8.96L12.47 8.96Q12.42 9.04 12.22 9.03L12.22 9.03Q12.07 9.03 12.00 8.95L12.00 8.95Q11.95 8.89 11.89 8.77Q11.83 8.66 11.76 8.49L11.76 8.49Q11.70 8.37 11.66 8.29Q11.61 8.20 11.58 8.15L11.58 8.15Q11.55 8.10 11.50 8.00Q11.45 7.90 11.38 7.74L11.38 7.74L11.19 7.35Q11.16 7.28 11.13 7.25Q11.11 7.21 11.10 7.20L11.10 7.20Q11.00 7.07 10.87 7.10L10.87 7.10Q10.70 7.12 10.70 7.40L10.70 7.40Q10.70 7.84 10.71 8.23Q10.71 8.61 10.73 8.96L10.73 8.96Q10.73 9.01 10.73 9.10Q10.73 9.18 10.72 9.30L10.72 9.30Q10.71 9.55 10.66 9.61L10.66 9.61Q10.60 9.71 10.46 9.70L10.46 9.70Q10.27 9.69 10.27 9.43L10.27 9.43Q10.27 9.13 10.26 8.82Q10.25 8.51 10.25 8.18L10.25 8.18Q10.24 8.03 10.24 7.90Q10.25 7.77 10.26 7.68L10.26 7.68Q10.28 7.51 10.28 7.38Q10.29 7.25 10.28 7.16L10.28 7.16Q10.27 7.05 10.26 6.93Q10.25 6.80 10.23 6.66L10.23 6.66Q10.21 6.46 10.23 6.18L10.23 6.18Q10.26 5.89 10.32 5.70L10.32 5.70Q10.34 5.62 10.36 5.58L10.36 5.58Q10.55 5.38 10.73 5.63L10.73 5.63Q10.81 5.73 10.88 5.84Q10.94 5.95 11.02 6.06L11.02 6.06Q11.13 6.22 11.21 6.41Q11.29 6.60 11.38 6.77L11.38 6.77Q11.46 6.95 11.52 7.09Q11.59 7.22 11.64 7.30L11.64 7.30L11.67 7.34Q11.74 7.46 11.80 7.58Q11.85 7.70 11.91 7.81L11.91 7.81Q12.06 8.13 12.22 8.14L12.22 8.14Q12.37 8.14 12.44 8.00L12.44 8.00Q12.48 7.93 12.51 7.86Q12.54 7.79 12.56 7.73L12.56 7.73Q12.61 7.62 12.67 7.49Q12.74 7.36 12.81 7.23L12.81 7.23Q12.95 6.99 13.10 6.75Q13.25 6.51 13.38 6.24L13.38 6.24Q13.41 6.16 13.47 6.06Q13.52 5.97 13.58 5.87L13.58 5.87L13.71 5.67Q13.72 5.65 13.74 5.63Q13.75 5.60 13.78 5.56ZM17.53 9.69L17.53 9.69Q17.39 9.65 17.25 9.58Q17.11 9.52 16.98 9.43Q16.84 9.34 16.73 9.24Q16.61 9.13 16.53 9.01L16.53 9.01Q16.42 8.84 16.37 8.66Q16.32 8.48 16.24 8.29L16.24 8.29Q16.17 8.13 16.16 7.96L16.16 7.96Q16.15 7.88 16.14 7.79Q16.13 7.70 16.13 7.62L16.13 7.62Q16.13 7.54 16.12 7.48Q16.12 7.42 16.12 7.38L16.12 7.38Q16.12 7.25 16.14 7.11Q16.15 6.97 16.19 6.82L16.19 6.82Q16.19 6.77 16.23 6.69L16.23 6.69Q16.30 6.49 16.40 6.31Q16.51 6.13 16.65 5.97L16.65 5.97Q16.91 5.67 17.39 5.43L17.39 5.43Q17.61 5.34 17.85 5.35L17.85 5.35Q18.00 5.36 18.15 5.39L18.15 5.39Q18.27 5.41 18.36 5.42Q18.46 5.43 18.53 5.44L18.53 5.44Q19.05 5.50 19.46 5.91L19.46 5.91Q19.54 6.00 19.62 6.10Q19.70 6.21 19.78 6.33L19.78 6.33L19.81 6.38Q19.82 6.41 19.82 6.42Q19.83 6.43 19.84 6.45L19.84 6.45Q19.95 6.72 20.05 7.13L20.05 7.13Q20.14 7.51 20.08 7.83L20.08 7.83Q20.04 8.02 19.97 8.19Q19.91 8.36 19.87 8.53L19.87 8.53Q19.60 9.45 18.66 9.69L18.66 9.69L18.61 9.70Q18.55 9.71 18.47 9.73Q18.39 9.74 18.28 9.75L18.28 9.75Q18.10 9.78 17.91 9.76Q17.73 9.75 17.53 9.69ZM18.22 5.78L18.22 5.78Q17.85 5.78 17.55 5.87Q17.25 5.95 17.01 6.19L17.01 6.19Q16.69 6.52 16.60 6.92Q16.51 7.32 16.60 7.81L16.60 7.81L16.67 8.15Q16.68 8.24 16.69 8.30Q16.71 8.36 16.71 8.37L16.71 8.37Q16.75 8.52 16.88 8.66Q17.00 8.80 17.10 8.90L17.10 8.90Q17.16 8.96 17.21 9.02Q17.27 9.08 17.33 9.13L17.33 9.13Q17.43 9.21 17.67 9.29L17.67 9.29L17.68 9.29Q17.81 9.32 17.97 9.31Q18.13 9.30 18.33 9.26L18.33 9.26Q18.42 9.23 18.52 9.22Q18.62 9.21 18.72 9.18L18.72 9.18Q18.98 9.12 19.15 8.91L19.15 8.91L19.15 8.91L19.15 8.90Q19.26 8.77 19.34 8.57L19.34 8.57Q19.41 8.37 19.44 8.32L19.44 8.32Q19.78 7.65 19.54 6.87L19.54 6.87L19.54 6.86Q19.51 6.79 19.48 6.72Q19.46 6.65 19.41 6.58L19.41 6.58Q19.14 6.18 18.77 6.00L18.77 6.00Q18.76 6.00 18.71 5.97Q18.66 5.94 18.57 5.89L18.57 5.89Q18.45 5.81 18.22 5.78L18.22 5.78ZM24.89 9.08L24.89 9.08Q24.77 9.23 24.67 9.34Q24.56 9.45 24.45 9.53Q24.33 9.60 24.19 9.66Q24.05 9.71 23.87 9.73L23.87 9.73Q23.78 9.74 23.69 9.74Q23.59 9.75 23.48 9.73L23.48 9.73Q23.33 9.72 23.19 9.72Q23.04 9.72 22.89 9.69L22.89 9.69Q22.57 9.61 22.35 9.46Q22.13 9.31 22.01 9.07L22.01 9.07Q21.86 8.74 22.18 8.73L22.18 8.73Q22.24 8.73 22.31 8.81Q22.38 8.89 22.42 8.93L22.42 8.93Q22.57 9.07 22.59 9.08L22.59 9.08L22.59 9.08L22.59 9.09Q22.93 9.32 23.48 9.32L23.48 9.32L23.49 9.32L23.50 9.32Q23.73 9.32 24.09 9.23L24.09 9.23Q24.45 9.14 24.56 8.87L24.56 8.87Q24.62 8.70 24.56 8.51L24.56 8.51L24.56 8.50Q24.39 8.14 23.90 8.02L23.90 8.02L23.06 7.80Q22.88 7.76 22.63 7.63L22.63 7.63Q22.50 7.56 22.40 7.51Q22.31 7.45 22.24 7.40L22.24 7.40Q21.96 7.19 21.92 6.99L21.92 6.99Q21.91 6.95 21.91 6.89Q21.91 6.83 21.91 6.74L21.91 6.74Q21.91 6.64 21.92 6.55Q21.94 6.46 21.95 6.36L21.95 6.36Q21.99 6.04 22.22 5.80L22.22 5.80Q22.32 5.69 22.47 5.62Q22.61 5.55 22.75 5.49L22.75 5.49Q22.94 5.40 23.15 5.40Q23.36 5.39 23.56 5.40L23.56 5.40Q24.23 5.42 24.61 5.87L24.61 5.87Q24.78 6.08 24.74 6.22L24.74 6.22L24.69 6.26Q24.58 6.32 24.43 6.19L24.43 6.19Q24.39 6.16 24.36 6.13Q24.32 6.09 24.29 6.06L24.29 6.06Q24.25 6.02 24.20 5.98Q24.14 5.95 24.08 5.91L24.08 5.91L24.06 5.90L24.04 5.90Q23.79 5.82 23.53 5.81Q23.26 5.80 22.98 5.86L22.98 5.86Q22.65 5.93 22.47 6.14Q22.29 6.34 22.29 6.67L22.29 6.67L22.29 6.69L22.30 6.70Q22.33 7.12 22.96 7.30L22.96 7.30L23.15 7.36L23.66 7.53Q23.78 7.57 23.89 7.62Q24.01 7.67 24.14 7.72L24.14 7.72Q24.33 7.81 24.49 7.90Q24.66 7.98 24.79 8.07L24.79 8.07Q24.89 8.13 24.94 8.22Q24.99 8.31 25.01 8.41Q25.03 8.51 25.02 8.62Q25.02 8.73 25.00 8.82L25.00 8.82Q24.99 8.89 24.95 8.96Q24.92 9.03 24.89 9.08ZM28.10 9.69L28.10 9.69Q27.97 9.65 27.83 9.58Q27.69 9.52 27.55 9.43Q27.42 9.34 27.30 9.24Q27.19 9.13 27.10 9.01L27.10 9.01Q27.00 8.84 26.95 8.66Q26.90 8.48 26.81 8.29L26.81 8.29Q26.74 8.13 26.74 7.96L26.74 7.96Q26.73 7.88 26.72 7.79Q26.71 7.70 26.71 7.62L26.71 7.62Q26.70 7.54 26.70 7.48Q26.69 7.42 26.69 7.38L26.69 7.38Q26.69 7.25 26.71 7.11Q26.73 6.97 26.76 6.82L26.76 6.82Q26.77 6.77 26.80 6.69L26.80 6.69Q26.87 6.49 26.98 6.31Q27.08 6.13 27.22 5.97L27.22 5.97Q27.49 5.67 27.97 5.43L27.97 5.43Q28.18 5.34 28.42 5.35L28.42 5.35Q28.57 5.36 28.72 5.39L28.72 5.39Q28.85 5.41 28.94 5.42Q29.03 5.43 29.10 5.44L29.10 5.44Q29.63 5.50 30.03 5.91L30.03 5.91Q30.12 6.00 30.20 6.10Q30.28 6.21 30.35 6.33L30.35 6.33L30.39 6.38Q30.39 6.41 30.40 6.42Q30.41 6.43 30.41 6.45L30.41 6.45Q30.53 6.72 30.63 7.13L30.63 7.13Q30.71 7.51 30.65 7.83L30.65 7.83Q30.61 8.02 30.55 8.19Q30.49 8.36 30.44 8.53L30.44 8.53Q30.17 9.45 29.24 9.69L29.24 9.69L29.18 9.70Q29.13 9.71 29.05 9.73Q28.96 9.74 28.85 9.75L28.85 9.75Q28.68 9.78 28.49 9.76Q28.30 9.75 28.10 9.69ZM28.80 5.78L28.79 5.78Q28.42 5.78 28.13 5.87Q27.83 5.95 27.59 6.19L27.59 6.19Q27.26 6.52 27.17 6.92Q27.08 7.32 27.18 7.81L27.18 7.81L27.24 8.15Q27.25 8.24 27.27 8.30Q27.28 8.36 27.29 8.37L27.29 8.37Q27.33 8.52 27.45 8.66Q27.58 8.80 27.68 8.90L27.68 8.90Q27.73 8.96 27.79 9.02Q27.84 9.08 27.90 9.13L27.90 9.13Q28.01 9.21 28.25 9.29L28.25 9.29L28.25 9.29Q28.38 9.32 28.54 9.31Q28.70 9.30 28.90 9.26L28.90 9.26Q29.00 9.23 29.10 9.22Q29.20 9.21 29.30 9.18L29.30 9.18Q29.55 9.12 29.72 8.91L29.72 8.91L29.73 8.91L29.73 8.90Q29.84 8.77 29.91 8.57L29.91 8.57Q29.98 8.37 30.02 8.32L30.02 8.32Q30.36 7.65 30.12 6.87L30.12 6.87L30.11 6.86Q30.08 6.79 30.06 6.72Q30.03 6.65 29.98 6.58L29.98 6.58Q29.72 6.18 29.35 6.00L29.35 6.00Q29.33 6.00 29.29 5.97Q29.24 5.94 29.15 5.89L29.15 5.89Q29.03 5.81 28.80 5.78L28.80 5.78ZM35.51 7.99L35.51 7.99Q35.51 8.16 35.51 8.33Q35.50 8.50 35.51 8.67L35.51 8.67Q35.51 9.21 35.51 9.49L35.51 9.49Q35.51 9.61 35.40 9.67L35.40 9.67Q35.29 9.73 35.21 9.68L35.21 9.68Q35.13 9.65 35.12 9.52L35.12 9.52Q35.10 9.30 35.10 9.08Q35.09 8.87 35.09 8.64L35.09 8.64Q35.10 8.37 35.10 8.09Q35.10 7.82 35.10 7.53L35.10 7.53Q35.10 7.37 35.11 7.20Q35.11 7.03 35.10 6.87L35.10 6.87Q35.10 6.68 35.10 6.47Q35.10 6.26 35.11 6.03L35.11 6.03Q35.12 5.99 35.12 5.93Q35.12 5.87 35.12 5.78L35.12 5.78Q35.12 5.63 35.12 5.61L35.12 5.61Q35.13 5.55 35.24 5.48L35.24 5.48Q35.33 5.42 35.60 5.41L35.60 5.41Q35.74 5.40 35.84 5.40Q35.94 5.39 36.00 5.39L36.00 5.39Q36.19 5.39 36.38 5.40Q36.58 5.41 36.78 5.42L36.78 5.42Q36.89 5.43 37.02 5.44Q37.15 5.45 37.31 5.48L37.31 5.48Q37.63 5.52 37.80 5.66L37.80 5.66L37.81 5.66Q38.04 5.86 38.16 6.09Q38.28 6.32 38.27 6.61L38.27 6.61Q38.26 6.81 38.17 6.96Q38.08 7.10 37.93 7.21L37.93 7.21Q37.63 7.42 37.28 7.49L37.28 7.49Q37.31 7.48 37.19 7.51L37.19 7.51Q36.98 7.54 36.77 7.53Q36.57 7.52 36.36 7.55L36.36 7.55Q36.29 7.55 36.20 7.56Q36.11 7.56 35.98 7.55L35.98 7.55Q35.74 7.54 35.63 7.62L35.63 7.62Q35.49 7.72 35.51 7.99ZM36.58 7.12L36.64 7.12Q36.91 7.12 37.16 7.10Q37.41 7.07 37.65 6.89L37.65 6.89Q37.91 6.70 37.86 6.44L37.86 6.44Q37.80 6.18 37.57 6.02L37.57 6.02Q37.52 5.97 37.44 5.94Q37.37 5.91 37.30 5.89L37.30 5.89Q36.95 5.81 36.65 5.85L36.65 5.85Q36.50 5.87 36.34 5.88Q36.18 5.89 36.02 5.89L36.02 5.89Q35.94 5.89 35.88 5.88Q35.81 5.88 35.78 5.87L35.78 5.87Q35.74 5.86 35.70 5.87L35.70 5.87Q35.53 5.91 35.52 6.17L35.52 6.17Q35.51 6.23 35.51 6.32Q35.51 6.41 35.51 6.52L35.51 6.52Q35.51 6.56 35.51 6.61Q35.51 6.66 35.51 6.73L35.51 6.73Q35.53 6.97 35.66 7.08L35.66 7.08Q35.79 7.19 36.11 7.18L36.11 7.18Q36.23 7.17 36.34 7.16Q36.46 7.14 36.58 7.12L36.58 7.12ZM39.84 9.29L39.84 9.29Q39.83 8.87 39.84 8.46Q39.84 8.04 39.84 7.62L39.84 7.62L39.84 7.38Q39.84 7.20 39.83 7.01Q39.82 6.82 39.83 6.64L39.83 6.64Q39.84 6.43 39.84 6.23Q39.84 6.03 39.85 5.82L39.85 5.82Q39.85 5.58 39.96 5.48L39.96 5.48Q40.05 5.41 40.28 5.41L40.28 5.41Q40.39 5.41 40.48 5.40Q40.56 5.40 40.63 5.40L40.63 5.40Q40.89 5.39 41.16 5.40Q41.43 5.41 41.69 5.41L41.69 5.41Q41.84 5.40 41.98 5.40Q42.12 5.39 42.26 5.41L42.26 5.41L42.61 5.43Q42.67 5.43 42.71 5.43Q42.76 5.43 42.79 5.45L42.79 5.45Q42.94 5.52 42.93 5.66L42.93 5.66Q42.92 5.72 42.88 5.76Q42.84 5.80 42.79 5.82Q42.74 5.84 42.68 5.84Q42.63 5.85 42.59 5.85L42.59 5.85Q42.17 5.85 41.76 5.83L41.76 5.83Q41.72 5.82 41.66 5.82Q41.60 5.82 41.52 5.82L41.52 5.82L41.13 5.82Q40.97 5.82 40.84 5.83Q40.72 5.83 40.64 5.83L40.64 5.83Q40.52 5.84 40.45 5.86Q40.37 5.89 40.34 5.94L40.34 5.94Q40.28 6.02 40.30 6.15L40.30 6.15Q40.30 6.20 40.30 6.24Q40.30 6.28 40.29 6.32L40.29 6.32Q40.28 6.40 40.27 6.49Q40.26 6.58 40.27 6.69L40.27 6.69Q40.27 6.88 40.42 7.01L40.42 7.01Q40.54 7.12 40.87 7.10L40.87 7.10Q41.01 7.10 41.15 7.08Q41.29 7.06 41.43 7.07L41.43 7.07Q41.49 7.07 41.59 7.07Q41.69 7.08 41.83 7.07L41.83 7.07Q42.10 7.06 42.20 7.16L42.20 7.16Q42.23 7.21 42.23 7.32L42.23 7.32Q42.21 7.44 42.03 7.47L42.03 7.47Q41.88 7.50 41.78 7.50L41.78 7.50Q41.66 7.51 41.54 7.50Q41.42 7.50 41.30 7.51L41.30 7.51Q41.15 7.52 40.99 7.51Q40.83 7.51 40.66 7.49L40.66 7.49Q40.64 7.49 40.61 7.49Q40.58 7.49 40.56 7.49L40.56 7.49L40.56 7.49Q40.48 7.47 40.41 7.52L40.41 7.52Q40.28 7.59 40.27 7.78L40.27 7.78Q40.26 7.96 40.27 8.09L40.27 8.09Q40.28 8.16 40.28 8.22Q40.28 8.29 40.28 8.33L40.28 8.33Q40.26 8.44 40.25 8.53Q40.24 8.63 40.23 8.74L40.23 8.74Q40.21 9.00 40.30 9.13L40.30 9.13Q40.41 9.28 40.70 9.28L40.70 9.28Q40.93 9.28 41.16 9.27Q41.39 9.26 41.62 9.25L41.62 9.25Q41.84 9.24 42.06 9.26Q42.28 9.28 42.50 9.28L42.50 9.28Q42.58 9.28 42.72 9.28Q42.85 9.28 42.93 9.32L42.93 9.32Q43.00 9.36 43.00 9.44L43.00 9.44Q43.08 9.69 42.79 9.70L42.79 9.70Q42.34 9.72 41.91 9.71Q41.47 9.71 41.04 9.71L41.04 9.71Q41.01 9.71 40.98 9.72Q40.96 9.72 40.94 9.72L40.94 9.72Q40.78 9.72 40.67 9.72Q40.56 9.72 40.48 9.71L40.48 9.71Q40.43 9.71 40.37 9.71Q40.30 9.71 40.22 9.70L40.22 9.70Q40.15 9.69 40.11 9.69Q40.07 9.68 40.04 9.67L40.04 9.67Q39.84 9.61 39.84 9.29ZM47.44 5.86L47.44 5.87L47.46 5.89Q47.54 5.97 47.60 6.08Q47.67 6.19 47.72 6.33L47.72 6.33Q47.76 6.43 47.81 6.51Q47.87 6.60 47.90 6.69L47.90 6.69Q47.95 6.84 47.98 6.97Q48.01 7.09 48.02 7.20L48.02 7.20Q48.02 7.31 48.02 7.43Q48.02 7.56 48.00 7.72L48.00 7.72Q47.98 7.85 47.98 7.99Q47.98 8.12 47.95 8.26L47.95 8.26Q47.92 8.44 47.85 8.61Q47.78 8.78 47.68 8.94L47.68 8.94Q47.51 9.21 47.20 9.44L47.20 9.44L47.15 9.47Q47.07 9.52 47.02 9.53L47.02 9.53Q46.94 9.56 46.87 9.59Q46.81 9.61 46.74 9.63L46.74 9.63Q46.39 9.71 46.01 9.70Q45.64 9.69 45.28 9.69L45.28 9.69Q45.15 9.69 44.97 9.70Q44.78 9.70 44.67 9.63L44.67 9.63Q44.58 9.58 44.55 9.45L44.55 9.45Q44.54 9.42 44.54 9.33L44.54 9.33Q44.54 9.00 44.55 8.68Q44.56 8.35 44.57 8.03L44.57 8.03Q44.58 7.86 44.56 7.69Q44.54 7.51 44.54 7.34L44.54 7.34L44.54 6.63L44.54 6.06Q44.54 5.65 44.65 5.52L44.65 5.52Q44.75 5.41 44.98 5.41L44.98 5.41Q45.10 5.42 45.20 5.42Q45.29 5.41 45.37 5.41L45.37 5.41Q45.63 5.41 45.90 5.42Q46.17 5.43 46.46 5.45L46.46 5.45Q47.02 5.48 47.44 5.86L47.44 5.86ZM46.55 5.89L46.55 5.89L46.54 5.89Q46.44 5.87 46.30 5.87Q46.16 5.87 45.98 5.89L45.98 5.89Q45.64 5.91 45.46 5.88L45.46 5.88Q45.16 5.83 45.09 5.88L45.09 5.88Q44.99 5.95 44.99 6.17L44.99 6.17Q44.99 6.39 44.99 6.60Q45.00 6.82 44.99 7.02L44.99 7.02Q44.95 7.53 44.96 8.04Q44.97 8.54 44.97 9.04L44.97 9.04Q44.97 9.15 45.06 9.22L45.06 9.22Q45.14 9.30 45.38 9.26L45.38 9.26Q45.38 9.26 45.39 9.26Q45.40 9.26 45.41 9.26L45.41 9.26Q45.55 9.25 45.67 9.25Q45.79 9.26 45.90 9.26L45.90 9.26Q46.31 9.29 46.68 9.22L46.68 9.22Q47.07 9.14 47.28 8.72L47.28 8.72Q47.37 8.54 47.44 8.37Q47.52 8.20 47.56 8.02Q47.60 7.85 47.61 7.66Q47.62 7.48 47.60 7.26L47.60 7.26Q47.56 6.84 47.33 6.42L47.33 6.42Q47.21 6.22 47.01 6.09Q46.82 5.96 46.55 5.89L46.55 5.89ZM52.52 5.67L52.52 5.67Q52.66 5.82 52.75 5.99Q52.83 6.16 52.92 6.34L52.92 6.34Q53.02 6.54 52.98 6.74Q52.94 6.94 52.76 7.13L52.76 7.13Q52.62 7.28 52.28 7.37L52.28 7.37Q52.16 7.40 52.02 7.44Q51.88 7.48 51.82 7.60L51.82 7.60Q51.78 7.72 51.84 7.84L51.84 7.84Q51.91 7.97 51.95 8.05Q51.99 8.13 52.02 8.18L52.02 8.18Q52.06 8.24 52.11 8.33Q52.17 8.42 52.24 8.52L52.24 8.52Q52.40 8.74 52.57 8.93Q52.75 9.13 52.92 9.30L52.92 9.30L52.96 9.34Q53.11 9.49 52.96 9.63L52.96 9.63Q52.81 9.79 52.66 9.64L52.66 9.64Q52.55 9.52 52.46 9.43Q52.37 9.34 52.29 9.26L52.29 9.26Q52.13 9.05 51.99 8.83L51.99 8.83Q51.88 8.67 51.78 8.53Q51.67 8.39 51.58 8.23L51.58 8.23Q51.30 7.74 50.90 7.58L50.90 7.58Q50.47 7.42 50.27 7.70L50.27 7.70Q50.21 7.80 50.21 7.92L50.21 7.92L50.21 9.40L50.21 9.49Q50.21 9.69 50.00 9.70L50.00 9.70Q49.79 9.69 49.79 9.44L49.79 9.44Q49.79 9.28 49.80 9.12Q49.81 8.95 49.81 8.76L49.81 8.76Q49.82 8.63 49.81 8.49Q49.80 8.35 49.80 8.22L49.80 8.22Q49.80 8.09 49.81 7.96Q49.81 7.83 49.81 7.70L49.81 7.70Q49.82 7.40 49.79 7.07L49.79 7.07Q49.79 6.84 49.80 6.61Q49.81 6.38 49.81 6.14L49.81 6.14Q49.80 6.02 49.80 5.86Q49.80 5.71 49.84 5.58L49.84 5.58Q49.96 5.42 50.42 5.42L50.42 5.42L50.63 5.42Q50.88 5.42 51.13 5.44Q51.38 5.46 51.63 5.45L51.63 5.45Q52.19 5.42 52.52 5.67ZM50.60 7.15L50.60 7.15Q50.86 7.16 51.06 7.16Q51.26 7.16 51.39 7.14L51.39 7.14Q51.52 7.13 51.68 7.11Q51.84 7.09 52.04 7.05L52.04 7.05Q52.42 6.97 52.54 6.69L52.54 6.69Q52.59 6.59 52.58 6.47L52.58 6.47Q52.56 6.34 52.50 6.24Q52.43 6.14 52.33 6.07Q52.23 6.00 52.12 5.94Q52.00 5.89 51.89 5.87L51.89 5.87Q51.60 5.82 51.32 5.83Q51.04 5.84 50.75 5.82L50.75 5.82Q50.70 5.82 50.64 5.82Q50.59 5.82 50.54 5.82L50.54 5.82Q50.39 5.81 50.32 5.89L50.32 5.89Q50.26 5.96 50.27 6.08L50.27 6.08Q50.28 6.12 50.28 6.23L50.28 6.23Q50.27 6.33 50.25 6.43Q50.24 6.52 50.23 6.62L50.23 6.62Q50.19 6.88 50.29 7.01L50.29 7.01Q50.38 7.14 50.60 7.15ZM56.21 9.69L56.21 9.69Q56.07 9.65 55.93 9.58Q55.79 9.52 55.65 9.43Q55.52 9.34 55.41 9.24Q55.29 9.13 55.21 9.01L55.21 9.01Q55.10 8.84 55.05 8.66Q55.00 8.48 54.91 8.29L54.91 8.29Q54.84 8.13 54.84 7.96L54.84 7.96Q54.83 7.88 54.82 7.79Q54.81 7.70 54.81 7.62L54.81 7.62Q54.80 7.54 54.80 7.48Q54.80 7.42 54.80 7.38L54.80 7.38Q54.80 7.25 54.81 7.11Q54.83 6.97 54.87 6.82L54.87 6.82Q54.87 6.77 54.91 6.69L54.91 6.69Q54.97 6.49 55.08 6.31Q55.19 6.13 55.32 5.97L55.32 5.97Q55.59 5.67 56.07 5.43L56.07 5.43Q56.29 5.34 56.53 5.35L56.53 5.35Q56.68 5.36 56.83 5.39L56.83 5.39Q56.95 5.41 57.04 5.42Q57.13 5.43 57.20 5.44L57.20 5.44Q57.73 5.50 58.13 5.91L58.13 5.91Q58.22 6.00 58.30 6.10Q58.38 6.21 58.45 6.33L58.45 6.33L58.49 6.38Q58.50 6.41 58.50 6.42Q58.51 6.43 58.52 6.45L58.52 6.45Q58.63 6.72 58.73 7.13L58.73 7.13Q58.82 7.51 58.75 7.83L58.75 7.83Q58.71 8.02 58.65 8.19Q58.59 8.36 58.54 8.53L58.54 8.53Q58.28 9.45 57.34 9.69L57.34 9.69L57.29 9.70Q57.23 9.71 57.15 9.73Q57.07 9.74 56.96 9.75L56.96 9.75Q56.78 9.78 56.59 9.76Q56.40 9.75 56.21 9.69ZM56.90 5.78L56.90 5.78Q56.53 5.78 56.23 5.87Q55.93 5.95 55.69 6.19L55.69 6.19Q55.36 6.52 55.28 6.92Q55.19 7.32 55.28 7.81L55.28 7.81L55.34 8.15Q55.36 8.24 55.37 8.30Q55.38 8.36 55.39 8.37L55.39 8.37Q55.43 8.52 55.56 8.66Q55.68 8.80 55.78 8.90L55.78 8.90Q55.84 8.96 55.89 9.02Q55.95 9.08 56.01 9.13L56.01 9.13Q56.11 9.21 56.35 9.29L56.35 9.29L56.36 9.29Q56.49 9.32 56.65 9.31Q56.81 9.30 57.00 9.26L57.00 9.26Q57.10 9.23 57.20 9.22Q57.30 9.21 57.40 9.18L57.40 9.18Q57.65 9.12 57.83 8.91L57.83 8.91L57.83 8.91L57.83 8.90Q57.94 8.77 58.02 8.57L58.02 8.57Q58.08 8.37 58.12 8.32L58.12 8.32Q58.46 7.65 58.22 6.87L58.22 6.87L58.21 6.86Q58.19 6.79 58.16 6.72Q58.13 6.65 58.08 6.58L58.08 6.58Q57.82 6.18 57.45 6.00L57.45 6.00Q57.44 6.00 57.39 5.97Q57.34 5.94 57.25 5.89L57.25 5.89Q57.13 5.81 56.90 5.78L56.90 5.78Z"></path></g><!----><!----></svg>